<?xml version="1.0" standalone="no"?>
<!DOCTYPE svg PUBLIC "-//W3C//DTD SVG 20010904//EN"
 "http://www.w3.org/TR/2001/REC-SVG-20010904/DTD/svg10.dtd">
<svg version="1.0" xmlns="http://www.w3.org/2000/svg"
 width="260.000000pt" height="260.000000pt" viewBox="0 0 260.000000 260.000000"
 preserveAspectRatio="xMidYMid meet">
<metadata>
Created by potrace 1.14, written by Peter Selinger 2001-2017
</metadata>
<g transform="translate(0.000000,260.000000) scale(0.100000,-0.100000)"
fill="#000000" stroke="none">
<path d="M0 1300 l0 -1300 1300 0 1300 0 0 1300 0 1300 -1300 0 -1300 0 0
-1300z m710 -570 c0 -5 -4 -10 -9 -10 -6 0 -11 -19 -13 -42 -4 -59 -28 -63
-28 -4 0 34 -4 46 -15 46 -8 0 -15 5 -15 10 0 6 18 10 40 10 22 0 40 -4 40
-10z m50 -10 c0 -12 7 -20 16 -20 9 0 18 9 21 20 10 39 23 19 23 -35 0 -54
-15 -77 -22 -33 -2 13 -11 24 -20 26 -14 3 -18 -3 -18 -23 0 -50 -25 -21 -28
33 -2 42 0 52 12 52 9 0 16 -9 16 -20z m170 10 c0 -5 -11 -10 -25 -10 -14 0
-25 -4 -25 -10 0 -5 9 -10 20 -10 11 0 20 -4 20 -10 0 -5 -9 -10 -19 -10 -11
0 -23 -4 -26 -10 -4 -6 7 -10 25 -10 45 0 33 -24 -13 -28 l-37 -3 0 55 0 56
40 0 c22 0 40 -4 40 -10z m140 0 c0 -5 -11 -10 -25 -10 -14 0 -25 -4 -25 -10
0 -5 11 -10 25 -10 14 0 25 -4 25 -10 0 -5 -11 -10 -25 -10 -14 0 -25 -4 -25
-10 0 -5 11 -10 25 -10 16 0 25 -6 25 -15 0 -11 -11 -15 -40 -15 l-40 0 0 55
0 55 40 0 c22 0 40 -4 40 -10z m74 -17 l15 -28 1 28 c0 17 5 27 15 27 12 0 15
-13 15 -55 0 -65 -19 -74 -47 -22 l-18 32 -3 -33 c-5 -51 -27 -33 -30 26 -3
47 -1 52 17 52 12 0 27 -11 35 -27z m156 12 c-3 -5 -16 -10 -30 -10 -20 0 -25
-5 -25 -25 0 -20 5 -25 27 -25 38 -1 45 -12 16 -26 -49 -22 -95 31 -68 81 9
17 19 21 48 18 21 -2 35 -7 32 -13z m122 -10 c25 -55 -39 -109 -82 -70 -22 20
-26 65 -8 83 7 7 27 12 45 12 26 0 36 -6 45 -25z m50 -12 c2 -26 8 -38 18 -38
10 0 16 12 18 38 4 51 32 52 32 0 0 -64 -53 -96 -84 -51 -21 29 -21 88 -2 88
10 0 16 -13 18 -37z m138 10 l14 -28 4 28 c2 16 10 27 18 27 12 0 14 -11 12
-52 -4 -66 -27 -77 -55 -26 l-18 33 -3 -32 c-5 -54 -22 -37 -22 22 0 47 3 55
18 55 11 0 25 -12 32 -27z m150 17 c0 -5 -7 -10 -15 -10 -11 0 -15 -12 -15
-46 0 -59 -24 -55 -28 4 -2 29 -8 42 -18 42 -8 0 -14 5 -14 10 0 6 20 10 45
10 25 0 45 -4 45 -10z m100 0 c0 -5 -11 -10 -25 -10 -14 0 -25 -4 -25 -10 0
-5 11 -10 25 -10 14 0 25 -4 25 -10 0 -5 -11 -10 -25 -10 -14 0 -25 -4 -25
-10 0 -5 11 -10 25 -10 16 0 25 -6 25 -15 0 -11 -11 -15 -40 -15 l-40 0 0 55
0 55 40 0 c22 0 40 -4 40 -10z m105 -10 c4 -12 2 -27 -4 -33 -6 -8 -6 -18 -1
-27 23 -36 -2 -42 -31 -7 l-18 22 -1 -22 c0 -14 -6 -23 -15 -23 -12 0 -15 13
-15 55 l0 55 39 0 c31 0 41 -4 46 -20z"/>
<path d="M1354 706 c-9 -24 4 -48 23 -44 12 2 18 12 18 28 0 29 -32 41 -41 16z"/>
<path d="M1910 704 c0 -17 22 -14 28 4 2 7 -3 12 -12 12 -9 0 -16 -7 -16 -16z"/>
</g>
</svg>
